<?xml version="1.0" encoding="UTF-8" standalone="no"?>
<svg
   xmlns:dc="http://purl.org/dc/elements/1.1/"
   xmlns:cc="http://creativecommons.org/ns#"
   xmlns:rdf="http://www.w3.org/1999/02/22-rdf-syntax-ns#"
   xmlns:svg="http://www.w3.org/2000/svg"
   xmlns="http://www.w3.org/2000/svg"
   xmlns:xlink="http://www.w3.org/1999/xlink"
   xmlns:sodipodi="http://sodipodi.sourceforge.net/DTD/sodipodi-0.dtd"
   xmlns:inkscape="http://www.inkscape.org/namespaces/inkscape"
   version="1.1"
   width="512"
   height="512"
   x="0"
   y="0"
   viewBox="0 0 480 480"
   style="enable-background:new 0 0 512 512"
   xml:space="preserve"
   class=""
   id="svg21"
   sodipodi:docname="instagram.svg"
   inkscape:version="1.0.2 (1.0.2+r75+1)"><metadata
     id="metadata27"><rdf:RDF><cc:Work
         rdf:about=""><dc:format>image/svg+xml</dc:format><dc:type
           rdf:resource="http://purl.org/dc/dcmitype/StillImage" /></cc:Work></rdf:RDF></metadata><defs
     id="defs25"><linearGradient
       inkscape:collect="always"
       xlink:href="#a"
       id="linearGradient863"
       gradientUnits="userSpaceOnUse"
       x1="-17.327999"
       y1="483.784"
       x2="489.336"
       y2="3.7839999"
       gradientTransform="matrix(0.8160972,0,0,0.8160972,44.136671,44.136671)" /><linearGradient
       inkscape:collect="always"
       xlink:href="#a"
       id="linearGradient865"
       gradientUnits="userSpaceOnUse"
       x1="-17.327999"
       y1="483.784"
       x2="489.336"
       y2="3.7839999"
       gradientTransform="matrix(0.8160972,0,0,0.8160972,44.136671,44.136671)" /></defs><sodipodi:namedview
     pagecolor="#ffffff"
     bordercolor="#666666"
     borderopacity="1"
     objecttolerance="10"
     gridtolerance="10"
     guidetolerance="10"
     inkscape:pageopacity="0"
     inkscape:pageshadow="2"
     inkscape:window-width="1318"
     inkscape:window-height="704"
     id="namedview23"
     showgrid="false"
     inkscape:zoom="0.75958736"
     inkscape:cx="247.51691"
     inkscape:cy="255.22881"
     inkscape:window-x="48"
     inkscape:window-y="27"
     inkscape:window-maximized="1"
     inkscape:current-layer="g15" /><g
     id="g19"><linearGradient
       id="a"><stop
         stop-opacity="1"
         stop-color="#ffffff"
         offset="0"
         id="stop2" /><stop
         stop-opacity="1"
         stop-color="#ffffff"
         offset="1"
         id="stop4" /></linearGradient><linearGradient
       id="b"
       gradientUnits="userSpaceOnUse"
       x1="-17.327999"
       x2="489.336"
       xlink:href="#a"
       y1="483.784"
       y2="3.7839999" /><linearGradient
       id="c"
       gradientUnits="userSpaceOnUse"
       x1="-19.639999"
       x2="487.02399"
       xlink:href="#a"
       y1="481.34399"
       y2="1.344" /><g
       fill="url(#b)"
       id="g15"><path
         d="M 240,0 C 107.45313,0 0,107.45313 0,240 0,372.54687 107.45313,480 240,480 372.54687,480 480,372.54687 480,240 479.85156,107.51563 372.48437,0.148438 240,0 Z m 0,464 C 116.28906,464 16,363.71094 16,240 16,116.28906 116.28906,16 240,16 363.71094,16 464,116.28906 464,240 463.85937,363.65234 363.65234,463.85937 240,464 Z m 0,0"
         fill=""
         id="path9"
         style="display:none" /><path
         d="M 324.87411,122.482 H 155.12589 c -18.02108,0.0223 -32.62157,14.62281 -32.64389,32.64389 v 169.74822 c 0.0223,18.02108 14.62281,32.62158 32.64389,32.64389 h 169.74822 c 18.02108,-0.0223 32.62158,-14.62281 32.64389,-32.64389 V 155.12589 C 357.4957,137.10481 342.89519,122.50432 324.87411,122.482 Z m 19.58633,202.39211 c 0,10.81648 -8.76985,19.58633 -19.58633,19.58633 H 155.12589 c -10.81648,0 -19.58633,-8.76985 -19.58633,-19.58633 V 155.12589 c 0,-10.81648 8.76985,-19.58633 19.58633,-19.58633 h 169.74822 c 10.81648,0 19.58633,8.76985 19.58633,19.58633 z m 0,0"
         fill=""
         id="path11"
         style="fill:url(#linearGradient863);stroke-width:2.8790625;stroke-miterlimit:4;stroke-dasharray:none" /><path
         d="m 240,174.71222 c -36.0581,0 -65.28778,29.22968 -65.28778,65.28778 0,36.0581 29.22968,65.28778 65.28778,65.28778 36.0581,0 65.28778,-29.22968 65.28778,-65.28778 C 305.2495,203.95783 276.04217,174.75047 240,174.71222 Z m 0,117.518 c -28.84713,0 -52.23022,-23.38309 -52.23022,-52.23022 0,-28.84713 23.38309,-52.23022 52.23022,-52.23022 28.84713,0 52.23022,23.38309 52.23022,52.23022 -0.0319,28.83118 -23.39904,52.19834 -52.23022,52.23022 z m 0,0"
         fill=""
         id="path13"
         style="fill:url(#linearGradient865);stroke-width:0.816097" /><path
         d="M 240,-2.1e-6 C 107.66332,-2.1e-6 0,107.66332 0,240 0,372.33667 107.66333,480 240,480 372.33667,480 480,372.33667 480,240 480,107.66332 372.33667,-2.1e-6 240,-2.1e-6 Z M 240,452.54109 C 122.80386,452.54109 27.45891,357.19461 27.45891,240 27.45891,122.80538 122.80386,27.458905 240,27.458905 c 117.19614,0 212.54109,95.346475 212.54109,212.541095 0,117.19461 -95.34495,212.54109 -212.54109,212.54109 z"
         fill="#ffffff"
         data-original="#000000"
         id="path2-3"
         style="opacity:0.998;fill:#ffffff;fill-opacity:1;stroke-width:1.52531;stroke-miterlimit:4;stroke-dasharray:none" /></g><path
       d="m 328,128 c -13.25391,0 -24,10.74609 -24,24 0,13.25391 10.74609,24 24,24 13.25391,0 24,-10.74609 24,-24 0,-13.25391 -10.74609,-24 -24,-24 z m 0,32 c -4.41797,0 -8,-3.58203 -8,-8 0,-4.41797 3.58203,-8 8,-8 4.41797,0 8,3.58203 8,8 0,4.41797 -3.58203,8 -8,8 z m 0,0"
       fill="url(#c)"
       data-original="url(#c)"
       id="path17" /></g></svg>
