<?xml version="1.0" encoding="UTF-8" standalone="no"?>
<svg
   xmlns:dc="http://purl.org/dc/elements/1.1/"
   xmlns:cc="http://creativecommons.org/ns#"
   xmlns:rdf="http://www.w3.org/1999/02/22-rdf-syntax-ns#"
   xmlns:svg="http://www.w3.org/2000/svg"
   xmlns="http://www.w3.org/2000/svg"
   xmlns:sodipodi="http://sodipodi.sourceforge.net/DTD/sodipodi-0.dtd"
   xmlns:inkscape="http://www.inkscape.org/namespaces/inkscape"
   height="682pt"
   viewBox="-21 -35 682.66669 682"
   width="682pt"
   version="1.1"
   id="svg8"
   sodipodi:docname="linkedin.svg"
   inkscape:version="1.0.2 (1.0.2+r75+1)">
  <metadata
     id="metadata14">
    <rdf:RDF>
      <cc:Work
         rdf:about="">
        <dc:format>image/svg+xml</dc:format>
        <dc:type
           rdf:resource="http://purl.org/dc/dcmitype/StillImage" />
      </cc:Work>
    </rdf:RDF>
  </metadata>
  <defs
     id="defs12" />
  <sodipodi:namedview
     pagecolor="#ffffff"
     bordercolor="#666666"
     borderopacity="1"
     objecttolerance="10"
     gridtolerance="10"
     guidetolerance="10"
     inkscape:pageopacity="0"
     inkscape:pageshadow="2"
     inkscape:window-width="1318"
     inkscape:window-height="704"
     id="namedview10"
     showgrid="false"
     inkscape:zoom="0.30241935"
     inkscape:cx="280.78359"
     inkscape:cy="408.81541"
     inkscape:window-x="48"
     inkscape:window-y="27"
     inkscape:window-maximized="1"
     inkscape:current-layer="svg8" />
  <path
     d="m 218.07318,176.57915 c -19.73455,0 -32.63741,12.95871 -32.63741,29.99114 0,16.65626 12.51848,29.98456 31.88016,29.98456 h 0.37452 c 20.12057,0 32.64234,-13.3283 32.64234,-29.98456 -0.37617,-17.03243 -12.52177,-29.99114 -32.25961,-29.99114 z m 0,0"
     id="path2"
     style="stroke-width:0.420513;fill:#ffffff;fill-opacity:1" />
  <path
     d="m 188.84587,260.25307 h 57.69244 v 173.57012 h -57.69244 z m 0,0"
     id="path4"
     style="stroke-width:0.420513;fill:#ffffff;fill-opacity:1" />
  <path
     d="m 388.14614,256.17935 c -31.12291,0 -51.99252,29.24538 -51.99252,29.24538 v -25.17166 h -57.69408 v 173.57012 h 57.6908 v -96.9283 c 0,-5.18907 0.37616,-10.36992 1.90052,-14.08062 4.17064,-10.36171 13.66175,-21.09629 29.60019,-21.09629 20.87618,0 29.22567,15.91708 29.22567,39.25063 v 92.85458 h 57.68751 v -99.52201 c 0,-53.31319 -28.46349,-78.12183 -66.41809,-78.12183 z m 0,0"
     id="path6"
     style="stroke-width:0.420513;fill:#ffffff;fill-opacity:1" />
  <path
     d="m 320.33337,-28.592618 c -184.49533,0 -334.592646,150.097308 -334.592646,334.592618 0,184.49532 150.097316,334.59263 334.592646,334.59263 184.4953,0 334.59261,-150.09731 334.59261,-334.59263 0,-184.49531 -150.09731,-334.592618 -334.59261,-334.592618 z m 0,630.903798 C 156.946,602.31118 24.022173,469.38523 24.022173,306 24.022173,142.61478 156.946,9.6888309 320.33337,9.6888309 483.7207,9.6888309 616.64453,142.61478 616.64453,306 c 0,163.38523 -132.92383,296.31118 -296.31116,296.31118 z"
     fill="#ffffff"
     data-original="#000000"
     id="path2-3"
     style="opacity:0.998;fill:#ffffff;fill-opacity:1;stroke-width:2.12649;stroke-miterlimit:4;stroke-dasharray:none" />
</svg>
