<?xml version="1.0" encoding="UTF-8" standalone="no"?>
<svg
   xmlns:dc="http://purl.org/dc/elements/1.1/"
   xmlns:cc="http://creativecommons.org/ns#"
   xmlns:rdf="http://www.w3.org/1999/02/22-rdf-syntax-ns#"
   xmlns:svg="http://www.w3.org/2000/svg"
   xmlns="http://www.w3.org/2000/svg"
   xmlns:sodipodi="http://sodipodi.sourceforge.net/DTD/sodipodi-0.dtd"
   xmlns:inkscape="http://www.inkscape.org/namespaces/inkscape"
   version="1.1"
   width="512"
   height="512"
   x="0"
   y="0"
   viewBox="0 0 512.002 512.002"
   style="enable-background:new 0 0 512 512"
   xml:space="preserve"
   class=""
   id="svg40"
   sodipodi:docname="star-white.svg"
   inkscape:version="1.0.2 (1.0.2+r75+1)"><metadata
     id="metadata46"><rdf:RDF><cc:Work
         rdf:about=""><dc:format>image/svg+xml</dc:format><dc:type
           rdf:resource="http://purl.org/dc/dcmitype/StillImage" /></cc:Work></rdf:RDF></metadata><defs
     id="defs44" /><sodipodi:namedview
     pagecolor="#ffffff"
     bordercolor="#666666"
     borderopacity="1"
     objecttolerance="10"
     gridtolerance="10"
     guidetolerance="10"
     inkscape:pageopacity="0"
     inkscape:pageshadow="2"
     inkscape:window-width="1318"
     inkscape:window-height="704"
     id="namedview42"
     showgrid="false"
     inkscape:zoom="1.0742188"
     inkscape:cx="256"
     inkscape:cy="256"
     inkscape:window-x="48"
     inkscape:window-y="27"
     inkscape:window-maximized="1"
     inkscape:current-layer="g4"
     inkscape:document-rotation="0" /><g
     id="g38">
<g
   id="g6">
	<g
   id="g4"
   style="display:inline">
		<path
   d="m 511.267,197.258 c -1.764,-5.431 -6.457,-9.389 -12.107,-10.209 L 340.437,163.984 269.452,20.157 c -2.526,-5.12 -7.741,-8.361 -13.45,-8.361 -5.71,0 -10.924,3.241 -13.451,8.361 l -70.988,143.827 -158.72,23.065 c -5.649,0.82 -10.344,4.778 -12.108,10.208 -1.765,5.431 -0.293,11.392 3.796,15.377 L 119.379,324.588 92.271,482.671 c -0.966,5.628 1.348,11.314 5.967,14.671 2.613,1.898 5.708,2.864 8.818,2.864 2.388,0 4.784,-0.569 6.978,-1.723 l 141.967,-74.638 141.961,74.637 c 5.055,2.657 11.178,2.215 15.797,-1.141 4.619,-3.356 6.934,-9.044 5.969,-14.672 L 392.611,324.588 507.472,212.633 c 4.088,-3.984 5.561,-9.945 3.795,-15.375 z"
   fill="#cca271"
   data-original="#000000"
   class=""
   id="path2"
   style="display:inline;opacity:0.997;fill:#ffffff;fill-opacity:1" />
	</g>
</g>
<g
   id="g8">
</g>
<g
   id="g10">
</g>
<g
   id="g12">
</g>
<g
   id="g14">
</g>
<g
   id="g16">
</g>
<g
   id="g18">
</g>
<g
   id="g20">
</g>
<g
   id="g22">
</g>
<g
   id="g24">
</g>
<g
   id="g26">
</g>
<g
   id="g28">
</g>
<g
   id="g30">
</g>
<g
   id="g32">
</g>
<g
   id="g34">
</g>
<g
   id="g36">
</g>
</g></svg>
