<?xml version="1.0" encoding="UTF-8" standalone="no"?>
<svg
   xmlns:dc="http://purl.org/dc/elements/1.1/"
   xmlns:cc="http://creativecommons.org/ns#"
   xmlns:rdf="http://www.w3.org/1999/02/22-rdf-syntax-ns#"
   xmlns:svg="http://www.w3.org/2000/svg"
   xmlns="http://www.w3.org/2000/svg"
   xmlns:sodipodi="http://sodipodi.sourceforge.net/DTD/sodipodi-0.dtd"
   xmlns:inkscape="http://www.inkscape.org/namespaces/inkscape"
   version="1.1"
   width="512"
   height="512"
   x="0"
   y="0"
   viewBox="0 0 512.00004 512"
   style="enable-background:new 0 0 512 512"
   xml:space="preserve"
   class=""
   id="svg6"
   sodipodi:docname="twitter.svg"
   inkscape:version="1.0.2 (1.0.2+r75+1)"><metadata
     id="metadata12"><rdf:RDF><cc:Work
         rdf:about=""><dc:format>image/svg+xml</dc:format><dc:type
           rdf:resource="http://purl.org/dc/dcmitype/StillImage" /></cc:Work></rdf:RDF></metadata><defs
     id="defs10" /><sodipodi:namedview
     pagecolor="#ffffff"
     bordercolor="#666666"
     borderopacity="1"
     objecttolerance="10"
     gridtolerance="10"
     guidetolerance="10"
     inkscape:pageopacity="0"
     inkscape:pageshadow="2"
     inkscape:window-width="1318"
     inkscape:window-height="704"
     id="namedview8"
     showgrid="false"
     inkscape:zoom="0.75958736"
     inkscape:cx="331.91651"
     inkscape:cy="307.5371"
     inkscape:window-x="48"
     inkscape:window-y="27"
     inkscape:window-maximized="1"
     inkscape:current-layer="svg6" /><g
     id="g4"><path
       d="m 401.69962,162.4664 c -18.33028,0.90412 -17.9301,0.83038 -20.00213,1.01596 l 10.85589,-33.17916 c 0,0 -33.88602,13.34067 -42.47646,15.72709 -22.56103,-21.70148 -56.09578,-22.66033 -80.07077,-6.89042 -19.63307,12.91715 -30.17103,35.09924 -26.65615,61.02633 -38.21014,-5.6746 -70.4043,-25.05865 -95.82214,-57.73578 l -8.03909,-10.33323 -6.00709,11.80602 c -7.59223,14.91812 -10.11333,31.97523 -7.1009,48.02828 1.23611,6.58586 3.33703,12.86718 6.2472,18.74878 l -6.89637,-2.85991 -0.81814,12.33184 c -0.82925,12.52695 3.06802,27.15005 10.42681,39.11311 2.07203,3.36906 4.73986,7.06886 8.12135,10.71868 l -3.56379,-0.5853 4.34858,14.13058 c 5.71585,18.56557 17.58773,32.92933 32.9945,40.91422 -15.38676,6.98796 -27.81666,11.44674 -48.24787,18.63933 l -18.69267,6.57635 17.26537,10.10245 c 6.58289,3.85206 29.84424,16.71687 52.82767,20.57608 51.08913,8.57494 108.60998,1.59173 147.33367,-35.73214 32.61657,-31.43751 43.31905,-76.15621 41.09585,-122.69268 -0.33571,-7.04507 1.46731,-13.76893 5.07779,-18.92961 7.23206,-10.33324 27.75442,-40.44787 27.79889,-40.51687 z m -41.45156,29.57216 c -5.99597,8.5678 -8.99951,19.51014 -8.4615,30.807 2.24321,46.94095 -9.69093,83.34404 -35.47337,108.19331 -30.11769,29.02968 -78.69682,40.42408 -133.27639,31.26145 -9.88434,-1.65837 -20.09994,-5.37243 -28.55477,-9.08174 17.12975,-6.30749 30.35779,-11.92974 51.72052,-22.75074 l 29.82199,-15.1061 -32.92557,-2.25556 c -15.77139,-1.08019 -28.90383,-9.26019 -36.97627,-22.54136 4.28633,-0.26648 8.41926,-1.00882 12.53441,-2.23653 l 31.40269,-9.36012 -31.66504,-8.29895 c -15.38675,-4.03289 -24.15728,-13.88551 -28.80599,-21.44213 -3.05246,-4.96557 -5.04667,-10.05249 -6.24275,-14.74206 3.17473,0.91127 6.87636,1.56081 12.84565,2.19371 l 29.30844,3.10258 -23.22132,-19.38643 c -16.7318,-13.96641 -23.43697,-34.94934 -18.52148,-55.12094 52.21852,57.96419 113.52992,53.60772 119.70152,55.13998 -1.35837,-14.12107 -1.39394,-14.15438 -1.74966,-15.49868 -7.90347,-29.90049 9.41748,-45.08272 17.22981,-50.22198 16.31828,-10.73296 42.22078,-12.35088 60.162,5.33198 3.87504,3.81637 9.11512,5.3177 14.0195,4.01386 4.40194,-1.17061 8.01463,-2.41022 11.55175,-3.75927 l -7.36324,22.50329 9.39969,0.007 c -1.77411,2.54583 -3.90172,5.5937 -6.46062,9.24828 z m 0,0"
       fill="#ffffff"
       data-original="#000000"
       class=""
       id="path2"
       style="stroke-width:0.58878" /></g><path
     d="M 256,-6.5e-7 C 114.84088,-6.5e-7 -8.5000005e-7,114.84088 -8.5000005e-7,256 -8.5000005e-7,397.15912 114.84088,512 256,512 397.15912,512 512,397.15912 512,256 512,114.84088 397.15912,-6.5e-7 256,-6.5e-7 Z M 256,482.7105 C 130.99078,482.7105 29.289499,381.00759 29.289499,256 29.289499,130.99241 130.99078,29.2895 256,29.2895 381.00922,29.2895 482.7105,130.99241 482.7105,256 482.7105,381.00759 381.00922,482.7105 256,482.7105 Z"
     fill="#ffffff"
     data-original="#000000"
     id="path2-3"
     style="opacity:0.998;fill:#ffffff;fill-opacity:1;stroke-width:1.627;stroke-miterlimit:4;stroke-dasharray:none" /></svg>
